<svg width="24" height="24" viewBox="0 0 24 24" fill="none" xmlns="http://www.w3.org/2000/svg">
<path d="M12 2.66671L12.4333 2.16004C12.3126 2.05676 12.1589 2 12 2C11.8411 2 11.6874 2.05676 11.5666 2.16004L12 2.66671ZM2.66667 10.6667L2.23333 10.16C2.08555 10.2867 2 10.472 2 10.6667H2.66667ZM9.33332 21.3333V22C9.51013 22 9.6797 21.9298 9.80472 21.8047C9.92975 21.6797 9.99998 21.5101 9.99998 21.3333H9.33332ZM14.6666 21.3333H14C14 21.5101 14.0702 21.6797 14.1952 21.8047C14.3203 21.9298 14.4898 22 14.6666 22V21.3333ZM21.3333 10.6667H22C22 10.472 21.9144 10.2867 21.7666 10.16L21.3333 10.6667ZM4 22H9.33332V20.6667H4V22ZM21.7666 10.16L12.4333 2.16004L11.5666 3.17337L20.9 11.1734L21.7666 10.16ZM11.5666 2.16004L2.23333 10.16L3.1 11.1734L12.4333 3.17337L11.5666 2.16004ZM9.99998 21.3333V17.3333H8.66665V21.3333H9.99998ZM14 17.3333V21.3333H15.3333V17.3333H14ZM14.6666 22H20V20.6667H14.6666V22ZM22 20V10.6667H20.6666V20H22ZM2 10.6667V20H3.33333V10.6667H2ZM12 15.3333C12.5304 15.3333 13.0391 15.5441 13.4142 15.9191C13.7893 16.2942 14 16.8029 14 17.3333H15.3333C15.3333 16.4493 14.9821 15.6014 14.357 14.9763C13.7319 14.3512 12.884 14 12 14V15.3333ZM12 14C11.1159 14 10.2681 14.3512 9.64296 14.9763C9.01784 15.6014 8.66665 16.4493 8.66665 17.3333H9.99998C9.99998 16.8029 10.2107 16.2942 10.5858 15.9191C10.9608 15.5441 11.4695 15.3333 12 15.3333V14ZM20 22C20.5304 22 21.0391 21.7893 21.4142 21.4142C21.7892 21.0391 22 20.5304 22 20H20.6666C20.6666 20.1768 20.5964 20.3464 20.4714 20.4714C20.3463 20.5964 20.1768 20.6667 20 20.6667V22ZM4 20.6667C3.82319 20.6667 3.65362 20.5964 3.52859 20.4714C3.40357 20.3464 3.33333 20.1768 3.33333 20H2C2 20.5304 2.21071 21.0391 2.58579 21.4142C2.96086 21.7893 3.46956 22 4 22V20.6667Z" fill="#D0D5DD"/>
</svg>
